<?xml version="1.0" encoding="UTF-8"?>
<svg width="512px" height="512px" viewBox="0 0 512 512" version="1.1" xmlns="http://www.w3.org/2000/svg" xmlns:xlink="http://www.w3.org/1999/xlink">
    <!-- Generator: Sketch 49.2 (51160) - http://www.bohemiancoding.com/sketch -->
    <title>GoldenGate</title>
    <desc>Created with Sketch.</desc>
    <defs></defs>
    <g id="GoldenGate" stroke="none" stroke-width="1" fill="none" fill-rule="evenodd">
        <rect id="Rectangle-3" fill="#EEC800" x="0" y="0" width="512" height="512"></rect>
        <rect id="Rectangle" fill="#FFD700" transform="translate(256.000000, 256.000000) scale(1, -1) translate(-256.000000, -256.000000) " x="16" y="16" width="480" height="480"></rect>
        <path d="M26,255.336008 C43.6071789,251.077975 63.6366491,228.105545 86.0884104,186.418718 C108.540172,144.731891 122.15623,106.258985 126.936586,71 L141.093958,71 L141.093958,441.97027 L126.936586,441.97027 L126.936586,275.336008 L26,275.336008 L26,255.336008 Z" id="Rectangle-4" fill="#DEBA00"></path>
        <path d="M141,255.336008 C158.607179,251.077975 178.636649,228.105545 201.08841,186.418718 C223.540172,144.731891 237.15623,106.258985 241.936586,71 L256.093958,71 L256.093958,441.97027 L241.936586,441.97027 L241.936586,275.336008 L141,275.336008 L141,255.336008 Z" id="Rectangle-4" fill="#DEBA00" transform="translate(198.546979, 256.485135) scale(-1, 1) translate(-198.546979, -256.485135) "></path>
        <path d="M256,255.336008 C273.607179,251.077975 293.636649,228.105545 316.08841,186.418718 C338.540172,144.731891 352.15623,106.258985 356.936586,71 L371.093958,71 L371.093958,441.97027 L356.936586,441.97027 L356.936586,275.336008 L256,275.336008 L256,255.336008 Z" id="Rectangle-4" fill="#DEBA00"></path>
        <path d="M371,255.336008 C388.607179,251.077975 408.636649,228.105545 431.08841,186.418718 C453.540172,144.731891 467.15623,106.258985 471.936586,71 L486.093958,71 L486.093958,441.97027 L471.936586,441.97027 L471.936586,275.336008 L371,275.336008 L371,255.336008 Z" id="Rectangle-4" fill="#DEBA00" transform="translate(428.546979, 256.485135) scale(-1, 1) translate(-428.546979, -256.485135) "></path>
    </g>
</svg>