<?xml version="1.0" encoding="UTF-8"?>
<svg width="512px" height="512px" viewBox="0 0 512 512" version="1.1" xmlns="http://www.w3.org/2000/svg" xmlns:xlink="http://www.w3.org/1999/xlink">
    <!-- Generator: Sketch 49.2 (51160) - http://www.bohemiancoding.com/sketch -->
    <title>GoldenGate</title>
    <desc>Created with Sketch.</desc>
    <defs></defs>
    <g id="GoldenGate" stroke="none" stroke-width="1" fill="none" fill-rule="evenodd">
        <rect id="Rectangle-3" fill="#EEC800" x="0" y="0" width="512" height="512"></rect>
        <rect id="Rectangle" fill="#FFD700" transform="translate(256.000000, 256.000000) scale(1, -1) translate(-256.000000, -256.000000) " x="16" y="16" width="480" height="480"></rect>
        <path d="M36,267.462429 C76.1318907,261.450804 103.836458,246.404119 119.113701,222.322375 C134.390944,198.24063 142.029565,177.466505 142.029565,160 L146.356439,160 L146.356439,351.317978 L142.029565,351.317978 L142.029565,278.593225 L36,278.593225 L36,267.462429 Z" id="Rectangle-4" fill="#DEBA00"></path>
        <path d="M146,267.462429 C186.131891,261.450804 213.836458,246.404119 229.113701,222.322375 C244.390944,198.24063 252.029565,177.466505 252.029565,160 L256.356439,160 L256.356439,351.317978 L252.029565,351.317978 L252.029565,278.593225 L146,278.593225 L146,267.462429 Z" id="Rectangle-4" fill="#DEBA00" transform="translate(201.178219, 255.658989) scale(-1, 1) translate(-201.178219, -255.658989) "></path>
        <path d="M256,267.462429 C296.131891,261.450804 323.836458,246.404119 339.113701,222.322375 C354.390944,198.24063 362.029565,177.466505 362.029565,160 L366.356439,160 L366.356439,351.317978 L362.029565,351.317978 L362.029565,278.593225 L256,278.593225 L256,267.462429 Z" id="Rectangle-4" fill="#DEBA00"></path>
        <path d="M366,267.462429 C406.131891,261.450804 433.836458,246.404119 449.113701,222.322375 C464.390944,198.24063 472.029565,177.466505 472.029565,160 L476.356439,160 L476.356439,351.317978 L472.029565,351.317978 L472.029565,278.593225 L366,278.593225 L366,267.462429 Z" id="Rectangle-4" fill="#DEBA00" transform="translate(421.178219, 255.658989) scale(-1, 1) translate(-421.178219, -255.658989) "></path>
    </g>
</svg>